<?xml version="1.0" standalone="no"?>
<!DOCTYPE svg PUBLIC "-//W3C//DTD SVG 20010904//EN"
 "http://www.w3.org/TR/2001/REC-SVG-20010904/DTD/svg10.dtd">
<svg version="1.0" xmlns="http://www.w3.org/2000/svg"
 width="500.000000pt" height="500.000000pt" viewBox="0 0 500.000000 500.000000"
 preserveAspectRatio="xMidYMid meet">

<g transform="translate(0.000000,500.000000) scale(0.100000,-0.100000)"
fill="none" stroke="#fff">
<path d="M2523 3243 c-10 -3 -13 -64 -13 -254 l0 -250 -172 -83 c-95 -46 -254
-118 -353 -161 -153 -66 -248 -105 -557 -232 -21 -9 -35 -20 -32 -24 3 -5 -1
-6 -9 -3 -8 3 -75 -22 -149 -56 l-134 -61 -12 -167 c-7 -92 -12 -175 -12 -184
0 -27 30 -22 30 5 2 75 29 320 36 327 5 5 95 43 199 85 204 82 486 197 680
277 159 66 373 163 460 208 l70 37 115 -64 c94 -53 475 -243 485 -243 2 0 70
-32 152 -71 81 -39 182 -86 223 -104 41 -18 132 -60 201 -93 l126 -60 11 -88
c6 -49 14 -120 18 -157 7 -66 17 -88 34 -71 5 5 0 79 -10 164 -11 85 -19 163
-20 173 0 10 -8 17 -20 17 -11 0 -88 34 -171 76 -83 41 -212 104 -288 138
-293 136 -600 292 -773 393 l-78 45 0 82 0 81 115 58 c63 32 117 62 120 68 11
17 -11 34 -124 93 -82 42 -110 62 -113 78 -3 23 -15 30 -35 21z"/>
<path d="M3068 1893 c-6 -16 -10 -40 -9 -54 1 -34 -29 -60 -71 -62 -26 -2 -32
2 -30 16 4 21 -14 23 -22 2 -3 -8 -10 -15 -17 -15 -6 0 -9 7 -5 15 7 19 5 19
-40 -2 -34 -17 -36 -17 -49 1 -9 11 -20 16 -30 12 -20 -7 -15 -42 6 -37 8 1
25 4 39 6 14 1 33 6 43 10 11 4 17 3 17 -5 0 -8 8 -10 22 -7 12 4 28 1 35 -4
15 -13 68 -3 84 17 10 13 14 12 31 -6 25 -26 47 -25 91 5 20 13 39 20 42 15 3
-5 -5 -16 -17 -24 -12 -9 -17 -16 -11 -16 6 0 16 7 23 15 12 14 15 14 31 -1
13 -12 27 -14 46 -10 15 4 49 8 74 8 l47 0 -20 20 -20 20 -38 -21 c-72 -40
-107 -19 -76 45 9 19 16 40 15 47 0 7 -5 1 -10 -12 -11 -29 -21 -24 -13 6 4
12 13 24 23 26 14 4 14 5 -2 6 -19 1 -37 -35 -37 -75 0 -15 -5 -24 -13 -22 -7
2 -34 -8 -60 -22 -43 -23 -48 -24 -63 -8 -11 11 -15 25 -10 42 5 22 13 26 44
28 36 1 36 1 5 5 -30 4 -32 6 -26 34 7 38 -13 39 -29 2z m12 -20 c-11 -17 -11
-17 -6 0 3 10 6 24 7 30 0 9 2 9 5 0 3 -7 0 -20 -6 -30z m-283 -95 c-3 -8 -6
-5 -6 6 -1 11 2 17 5 13 3 -3 4 -12 1 -19z m558 12 c3 -5 1 -10 -4 -10 -6 0
-11 5 -11 10 0 6 2 10 4 10 3 0 8 -4 11 -10z"/>
<path d="M3018 1843 c7 -3 16 -2 19 1 4 3 -2 6 -13 5 -11 0 -14 -3 -6 -6z"/>
<path d="M3581 1822 c-7 -13 -22 -28 -34 -33 -20 -9 -20 -9 3 -3 14 3 35 8 48
11 16 4 22 1 22 -11 0 -18 43 -22 82 -7 16 6 29 5 42 -4 20 -15 71 -5 96 21
12 12 8 11 -17 -3 -31 -17 -33 -17 -47 2 -9 11 -13 27 -10 35 3 9 -3 7 -18 -6
-47 -44 -118 -61 -118 -29 0 8 -6 15 -14 15 -8 0 -16 8 -18 18 -3 14 -6 14
-17 -6z m184 -23 c10 -15 -1 -23 -20 -15 -9 3 -13 10 -10 16 8 13 22 13 30 -1z"/>
<path d="M3430 1793 c-20 -12 -21 -14 -5 -10 11 2 27 -2 34 -10 9 -10 17 -11
23 -5 6 6 17 8 25 5 12 -5 11 -1 -3 15 -21 25 -39 26 -74 5z m50 -9 c0 -8 -5
-12 -10 -9 -6 4 -8 11 -5 16 9 14 15 11 15 -7z"/>
</g>
</svg>
