<?xml version="1.0" encoding="UTF-8"?><svg id="_レイヤー_2" xmlns="http://www.w3.org/2000/svg" width="284.29616" height="149.77195" viewBox="0 0 284.29616 149.77195"><defs><style>.cls-1{fill:#fff;stroke:#fff;stroke-miterlimit:10;stroke-width:.1px;}</style></defs><g id="_レイヤー_1-2"><path class="cls-1" d="M144.35.42969c-1,.3-1.3,6.4-1.3,25.4v25l-17.2,8.3c-9.5,4.6-25.4,11.8-35.3,16.1-15.3,6.6-24.8,10.5-55.7,23.2-2.1.9-3.5,2-3.2,2.4.3.5-.1.6-.9.3s-7.5,2.2-14.9,5.6l-13.4,6.1-1.2,16.7c-.7,9.2-1.2,17.5-1.2,18.4,0,2.7,3,2.2,3-.5.2-7.5,2.9-32,3.6-32.7.5-.5,9.5-4.3,19.9-8.5,20.4-8.2,48.6-19.7,68-27.7,15.9-6.6,37.3-16.3,46-20.8l7-3.7,11.5,6.4c9.4,5.3,47.5,24.3,48.5,24.3.2,0,7,3.2,15.2,7.1,8.1,3.9,18.2,8.6,22.3,10.4s13.2,6,20.1,9.3l12.6,6,1.1,8.8c.6,4.9,1.4,12,1.8,15.7.7,6.6,1.7,8.8,3.4,7.1.5-.5,0-7.9-1-16.4-1.1-8.5-1.9-16.3-2-17.3,0-1-.8-1.7-2-1.7-1.1,0-8.8-3.4-17.1-7.6-8.3-4.1-21.2-10.4-28.8-13.8-29.3-13.6-60-29.2-77.3-39.3l-7.8-4.5v-16.3l11.5-5.8c6.3-3.2,11.7-6.2,12-6.8,1.1-1.7-1.1-3.4-12.4-9.3-8.2-4.2-11-6.2-11.3-7.8-.3-2.3-1.5-3-3.5-2.1Z"/><path class="cls-1" d="M198.85,135.42969c-.6,1.6-1,4-.9,5.4.1,3.4-2.9,6-7.1,6.2-2.6.2-3.2-.2-3-1.6.4-2.1-1.4-2.3-2.2-.2-.3.8-1,1.5-1.7,1.5-.6,0-.9-.7-.5-1.5.7-1.9.5-1.9-4,.2-3.4,1.7-3.6,1.7-4.9-.1-.9-1.1-2-1.6-3-1.2-2,.7-1.5,4.2.6,3.7.8-.1,2.5-.4,3.9-.6,1.4-.1,3.3-.6,4.3-1,1.1-.4,1.7-.3,1.7.5s.8,1,2.2.7c1.2-.4,2.8-.1,3.5.4,1.5,1.3,6.8.3,8.4-1.7,1-1.3,1.4-1.2,3.1.6,2.5,2.6,4.7,2.5,9.1-.5,2-1.3,3.9-2,4.2-1.5s-.5,1.6-1.7,2.4c-1.2.9-1.7,1.6-1.1,1.6s1.6-.7,2.3-1.5c1.2-1.4,1.5-1.4,3.1.1,1.3,1.2,2.7,1.4,4.6,1,1.5-.4,4.9-.8,7.4-.8h4.7l-2-2-2-2-3.8,2.1c-7.2,4-10.7,1.9-7.6-4.5.9-1.9,1.6-4,1.5-4.7,0-.7-.5-.1-1,1.2-1.1,2.9-2.1,2.4-1.3-.6.4-1.2,1.3-2.4,2.3-2.6,1.4-.4,1.4-.5-.2-.6-1.9-.1-3.7,3.5-3.7,7.5,0,1.5-.5,2.4-1.3,2.2-.7-.2-3.4.8-6,2.2-4.3,2.3-4.8,2.4-6.3.8-1.1-1.1-1.5-2.5-1-4.2.5-2.2,1.3-2.6,4.4-2.8q3.6-.1.5-.5c-3-.4-3.2-.6-2.6-3.4.7-3.8-1.3-3.9-2.9-.2ZM200.05,137.42969q-1.1,1.7-.6,0c.3-1,.6-2.4.7-3,0-.9.2-.9.5,0,.3.7,0,2-.6,3ZM171.75,146.92969c-.3.8-.6.5-.6-.6-.1-1.1.2-1.7.5-1.3.3.3.4,1.2.1,1.9ZM227.55,145.72969c.3.5.1,1-.4,1-.6,0-1.1-.5-1.1-1,0-.6.2-1,.4-1,.3,0,.8.4,1.1,1Z"/><path class="cls-1" d="M193.85,140.42969c.7.3,1.6.2,1.9-.1.4-.3-.2-.6-1.3-.5-1.1,0-1.4.3-.6.6Z"/><path class="cls-1" d="M250.15,142.52969c-.7,1.3-2.2,2.8-3.4,3.3q-2,.9.3.3c1.4-.3,3.5-.8,4.8-1.1,1.6-.4,2.2-.1,2.2,1.1,0,1.8,4.3,2.2,8.2.7,1.6-.6,2.9-.5,4.2.4,2,1.5,7.1.5,9.6-2.1,1.2-1.2.8-1.1-1.7.3-3.1,1.7-3.3,1.7-4.7-.2-.9-1.1-1.3-2.7-1-3.5.3-.9-.3-.7-1.8.6-4.7,4.4-11.8,6.1-11.8,2.9,0-.8-.6-1.5-1.4-1.5s-1.6-.8-1.8-1.8c-.3-1.4-.6-1.4-1.7.6ZM268.55,144.82969c1,1.5-.1,2.3-2,1.5-.9-.3-1.3-1-1-1.6.8-1.3,2.2-1.3,3,.1Z"/><path class="cls-1" d="M235.05,145.42969c-2,1.2-2.1,1.4-.5,1,1.1-.2,2.7.2,3.4,1,.9,1,1.7,1.1,2.3.5s1.7-.8,2.5-.5c1.2.5,1.1.1-.3-1.5-2.1-2.5-3.9-2.6-7.4-.5ZM240.05,146.32969c0,.8-.5,1.2-1,.9-.6-.4-.8-1.1-.5-1.6.9-1.4,1.5-1.1,1.5.7Z"/></g></svg>