<svg width="46" height="59" viewBox="0 0 46 59" fill="none" xmlns="http://www.w3.org/2000/svg">
<foreignObject x="-4" y="-4" width="54" height="66.7998"><div xmlns="http://www.w3.org/1999/xhtml" style="backdrop-filter:blur(2px);clip-path:url(#bgblur_0_291_20049_clip_path);height:100%;width:100%"></div></foreignObject><path data-figma-bg-blur-radius="4" d="M45 22.9455C45 35.0656 23 57.8 23 57.8C23 57.8 1 35.0656 1 22.9455C1 10.8253 10.8497 1 23 1C35.1503 1 45 10.8253 45 22.9455Z" fill="#F0F4F7" fill-opacity="0.8" stroke="white" stroke-width="2" stroke-linejoin="round"/>
<path d="M24.7172 29.5665C24.0332 29.7487 23.3283 29.8412 22.6204 29.8415C20.7647 29.8413 18.9665 29.1978 17.5321 28.0205C16.0978 26.8432 15.116 25.2049 14.7541 23.3849C14.3922 21.5649 14.6726 19.6757 15.5474 18.0392C16.4223 16.4027 17.8375 15.1202 19.552 14.4102C21.2664 13.7001 23.174 13.6065 24.9497 14.1453C26.7254 14.6841 28.2594 15.8219 29.2903 17.3649C30.3211 18.9079 30.7851 20.7605 30.6031 22.6072C30.4211 24.454 29.6045 26.1804 28.2922 27.4925" fill="#F0F4F7" fill-opacity="0.8"/>
<path d="M24.7172 29.5665C24.0332 29.7487 23.3283 29.8412 22.6204 29.8415C20.7647 29.8413 18.9665 29.1978 17.5321 28.0205C16.0978 26.8432 15.116 25.2049 14.7541 23.3849C14.3922 21.5649 14.6726 19.6757 15.5474 18.0392C16.4223 16.4027 17.8375 15.1202 19.552 14.4102C21.2664 13.7001 23.174 13.6065 24.9497 14.1453C26.7254 14.6841 28.2594 15.8219 29.2903 17.3649C30.3211 18.9079 30.7851 20.7605 30.6031 22.6072C30.4211 24.454 29.6045 26.1804 28.2922 27.4925" stroke="#FF535E" stroke-width="3" stroke-linecap="round" stroke-linejoin="round"/>
<path d="M32.9325 32.1333L28.2919 27.4927" stroke="#FF535E" stroke-width="3" stroke-linecap="round" stroke-linejoin="round"/>
<defs>
<clipPath id="bgblur_0_291_20049_clip_path" transform="translate(4 4)"><path d="M45 22.9455C45 35.0656 23 57.8 23 57.8C23 57.8 1 35.0656 1 22.9455C1 10.8253 10.8497 1 23 1C35.1503 1 45 10.8253 45 22.9455Z"/>
</clipPath></defs>
</svg>
